<?xml version="1.0" encoding="UTF-8"?>
<svg id="Layer_2" data-name="Layer 2" xmlns="http://www.w3.org/2000/svg" viewBox="0 0 1663.23 428.59">
  <defs>
    <style>
      .cls-1 {
        fill: #fff;
      }
    </style>
  </defs>
  <g id="_Слой_1" data-name="Слой 1">
    <g>
      <g>
        <path d="M733.96,325.37c-79.11,0-134.09-55.95-134.09-132.64s55.47-132.64,133.13-132.64c73.32,0,122.52,55.47,122.52,132.64,0,6.76-.48,14.96-1.93,21.23h-183.77c7.24,32.8,29.91,51.61,64.64,51.61,27.97,0,46.3-8.69,62.7-29.43l39.07,41c-25.57,33.28-59.81,48.23-102.26,48.23ZM669.8,171.02h119.62c-4.82-31.35-26.53-52.09-57.88-52.09s-54.99,19.78-61.74,52.09Z"/>
        <path d="M996.21,325.37c79.11,0,134.09-55.95,134.09-132.64s-55.47-132.64-133.13-132.64c-73.32,0-122.52,55.47-122.52,132.64,0,6.76.48,14.96,1.93,21.23h183.77c-7.24,32.8-29.91,51.61-64.64,51.61-27.97,0-46.3-8.69-62.7-29.43l-39.07,41c25.57,33.28,59.81,48.23,102.26,48.23ZM1060.37,171.02h-119.62c4.82-31.35,26.53-52.09,57.88-52.09s54.99,19.78,61.74,52.09Z"/>
      </g>
      <g>
        <path d="M1214.33,0h-67.53v240.24c0,8.12,3.23,15.91,8.97,21.65l46.79,46.79c5.74,5.74,13.53,8.97,21.65,8.97h42.21v-58.85h-52.09V0Z"/>
        <path d="M1357.58,4.13h-67.53v63.67h-23.63v57.88h23.63v120.7c0,8.12,3.23,15.91,8.97,21.65l40.65,40.65c5.74,5.74,13.53,8.97,21.65,8.97h46.9v-58.85h-50.64V125.68h57.88v-57.88h-57.88V4.13Z"/>
        <path d="M1663.23,67.8h-67.53v153.39c0,23.15-16.88,38.58-38.59,38.58s-39.07-15.43-39.07-38.58V67.8h-67.53v153.39c0,56.91,38.11,98.4,90.2,98.4,33.28,0,49.2-12.54,54.03-21.22h1.93c-.49,5.31-.96,12.54-.96,22.18v49.2h-117.21v58.85h103.38c8.12,0,15.91-3.23,21.65-8.97l50.74-50.74c5.74-5.74,8.97-13.53,8.97-21.65V67.8Z"/>
      </g>
      <rect x="0" width="374.56" height="374.56" rx="91.61" ry="91.61"/>
      <path d="M538.03,67.8c-8.12,0-15.91,3.23-21.65,8.97l-50.82,50.82c-5.74,5.74-8.97,13.53-8.97,21.65v168.41h67.53v-168.04c0-4.85-2.75-9.29-7.09-11.46l-22.12-11.03h109.91v-59.33h-66.79Z"/>
      <path class="cls-1" d="M202.72,66.18c-7.87,0-15.42,3.13-20.99,8.69l-49.26,49.26c-5.57,5.57-8.69,13.12-8.69,20.99v163.25h65.46v-162.89c0-4.71-2.66-9.01-6.87-11.11l-21.44-10.69h106.55v-57.51h-64.75Z"/>
    </g>
  </g>
</svg>